<?xml version="1.0" standalone="no"?>
<!DOCTYPE svg PUBLIC "-//W3C//DTD SVG 20010904//EN"
 "http://www.w3.org/TR/2001/REC-SVG-20010904/DTD/svg10.dtd">
<svg version="1.0" xmlns="http://www.w3.org/2000/svg"
 width="76.000000pt" height="77.000000pt" viewBox="0 0 76.000000 77.000000"
 preserveAspectRatio="xMidYMid meet">
<metadata>
Created by potrace 1.16, written by Peter Selinger 2001-2019
</metadata>
<g transform="translate(0.000000,77.000000) scale(0.100000,-0.100000)"
fill="#000000" stroke="none">
<path d="M295 647 c-62 -21 -97 -42 -137 -84 -109 -113 -109 -293 2 -403 144
-145 382 -105 472 79 34 69 32 187 -4 257 -63 120 -216 189 -333 151z m139
-61 c128 -39 192 -164 155 -301 -15 -56 -91 -127 -152 -145 -181 -50 -344 108
-292 285 21 72 71 128 138 154 63 24 89 25 151 7z"/>
<path d="M290 355 c0 -122 2 -145 15 -145 12 0 15 14 15 70 l0 70 45 0 45 0 0
-70 c0 -56 3 -70 15 -70 13 0 15 23 15 145 0 122 -2 145 -15 145 -12 0 -15
-14 -15 -65 l0 -65 -45 0 -45 0 0 65 c0 51 -3 65 -15 65 -13 0 -15 -23 -15
-145z"/>
</g>
</svg>
