<?xml version="1.0" encoding="UTF-8" standalone="no"?>
<svg
   xmlns:dc="http://purl.org/dc/elements/1.1/"
   xmlns:cc="http://creativecommons.org/ns#"
   xmlns:rdf="http://www.w3.org/1999/02/22-rdf-syntax-ns#"
   xmlns:svg="http://www.w3.org/2000/svg"
   xmlns="http://www.w3.org/2000/svg"
   version="1.0"
   viewBox="0 0 365.38 365.38"
   id="svg2505">
  <defs
     id="defs79" />
  <g
     transform="translate(-108.74 -343.96)"
     id="layer1">
    <g
       transform="matrix(.63447 .051763 -.051763 .63447 198.58 289.1)"
       id="g3727">
      <path
         d="m237.14 355.93a56.429 56.429 0 1 1 -112.85 0 56.429 56.429 0 1 1 112.85 0z"
         transform="matrix(.44304 0 0 .44304 95.651 204.67)"
         id="path3157" />
      <path
         fill="none"
         stroke-width="8"
         stroke-linecap="round"
         stroke="#000"
         transform="matrix(.80676 0 0 .80676 101.95 158.77)"
         d="m205.71 252.36a114.29 114.29 0 1 1 -228.57 0 114.29 114.29 0 1 1 228.57 0z"
         id="path3159" />
      <path
         d="m237.14 355.93a56.429 56.429 0 1 1 -112.85 0 56.429 56.429 0 1 1 112.85 0z"
         transform="matrix(0 -.44304 .44304 0 18.022 303.28)"
         id="path3174" />
      <path
         d="m237.14 355.93a56.429 56.429 0 1 1 -112.85 0 56.429 56.429 0 1 1 112.85 0z"
         transform="matrix(.44304 0 0 .44304 232.79 202.67)"
         id="path3307" />
      <path
         d="m237.14 355.93a56.429 56.429 0 1 1 -112.85 0 56.429 56.429 0 1 1 112.85 0z"
         transform="matrix(0 .44304 -.44304 0 333.41 417.44)"
         id="path3309" />
      <path
         d="m237.14 355.93a56.429 56.429 0 1 1 -112.85 0 56.429 56.429 0 1 1 112.85 0z"
         transform="matrix(-.44304 0 0 -.44304 118.63 518.05)"
         id="path3311" />
      <path
         d="m237.14 355.93a56.429 56.429 0 1 1 -112.85 0 56.429 56.429 0 1 1 112.85 0z"
         transform="matrix(.22101 -.38398 .38398 .22101 67.518 232.23)"
         id="path3313" />
      <path
         d="m237.14 355.93a56.429 56.429 0 1 1 -112.85 0 56.429 56.429 0 1 1 112.85 0z"
         transform="matrix(.38398 .22101 -.22101 .38398 303.85 252.17)"
         id="path3315" />
      <path
         d="m237.14 355.93a56.429 56.429 0 1 1 -112.85 0 56.429 56.429 0 1 1 112.85 0z"
         transform="matrix(-.22101 .38398 -.38398 -.22101 283.91 488.5)"
         id="path3317" />
      <path
         d="m237.14 355.93a56.429 56.429 0 1 1 -112.85 0 56.429 56.429 0 1 1 112.85 0z"
         transform="matrix(-.38398 -.22101 .22101 -.38398 47.579 468.56)"
         id="path3319" />
      <path
         d="m237.14 355.93a56.429 56.429 0 1 1 -112.85 0 56.429 56.429 0 1 1 112.85 0z"
         transform="matrix(.39079 -.20872 .20872 .39079 151.77 194.38)"
         id="path3321" />
      <path
         d="m237.14 355.93a56.429 56.429 0 1 1 -112.85 0 56.429 56.429 0 1 1 112.85 0z"
         transform="matrix(.20872 .39079 -.39079 .20872 341.7 336.42)"
         id="path3323" />
      <path
         d="m237.14 355.93a56.429 56.429 0 1 1 -112.85 0 56.429 56.429 0 1 1 112.85 0z"
         transform="matrix(-.39079 .20872 -.20872 -.39079 199.66 526.35)"
         id="path3325" />
      <path
         d="m237.14 355.93a56.429 56.429 0 1 1 -112.85 0 56.429 56.429 0 1 1 112.85 0z"
         transform="matrix(-.20872 -.39079 .39079 -.20872 9.7275 384.3)"
         id="path3327" />
      <path
         d="m237.14 355.93a56.429 56.429 0 1 1 -112.85 0 56.429 56.429 0 1 1 112.85 0z"
         transform="matrix(0 -.44304 .44304 0 18.022 303.28)"
         id="path3329" />
      <path
         d="m237.14 355.93a56.429 56.429 0 1 1 -112.85 0 56.429 56.429 0 1 1 112.85 0z"
         transform="matrix(.44304 0 0 .44304 232.79 202.67)"
         id="path3331" />
      <path
         d="m237.14 355.93a56.429 56.429 0 1 1 -112.85 0 56.429 56.429 0 1 1 112.85 0z"
         transform="matrix(0 .44304 -.44304 0 333.41 417.44)"
         id="path3333" />
      <path
         d="m237.14 355.93a56.429 56.429 0 1 1 -112.85 0 56.429 56.429 0 1 1 112.85 0z"
         transform="matrix(-.44304 0 0 -.44304 118.63 518.05)"
         id="path3335" />
      <path
         d="m237.14 355.93a56.429 56.429 0 1 1 -112.85 0 56.429 56.429 0 1 1 112.85 0z"
         transform="matrix(.22101 -.38398 .38398 .22101 67.518 232.23)"
         id="path3337" />
      <path
         d="m237.14 355.93a56.429 56.429 0 1 1 -112.85 0 56.429 56.429 0 1 1 112.85 0z"
         transform="matrix(.38398 .22101 -.22101 .38398 303.85 252.17)"
         id="path3339" />
      <path
         d="m237.14 355.93a56.429 56.429 0 1 1 -112.85 0 56.429 56.429 0 1 1 112.85 0z"
         transform="matrix(-.22101 .38398 -.38398 -.22101 283.91 488.5)"
         id="path3341" />
      <path
         d="m237.14 355.93a56.429 56.429 0 1 1 -112.85 0 56.429 56.429 0 1 1 112.85 0z"
         transform="matrix(-.38398 -.22101 .22101 -.38398 47.579 468.56)"
         id="path3343" />
      <path
         d="m237.14 355.93a56.429 56.429 0 1 1 -112.85 0 56.429 56.429 0 1 1 112.85 0z"
         transform="matrix(.39079 -.20872 .20872 .39079 151.77 194.38)"
         id="path3345" />
      <path
         d="m237.14 355.93a56.429 56.429 0 1 1 -112.85 0 56.429 56.429 0 1 1 112.85 0z"
         transform="matrix(.20872 .39079 -.39079 .20872 341.7 336.42)"
         id="path3347" />
      <path
         d="m237.14 355.93a56.429 56.429 0 1 1 -112.85 0 56.429 56.429 0 1 1 112.85 0z"
         transform="matrix(-.39079 .20872 -.20872 -.39079 199.66 526.35)"
         id="path3349" />
      <path
         d="m237.14 355.93a56.429 56.429 0 1 1 -112.85 0 56.429 56.429 0 1 1 112.85 0z"
         transform="matrix(-.20872 -.39079 .39079 -.20872 9.7275 384.3)"
         id="path3351" />
      <path
         d="m237.14 355.93a56.429 56.429 0 1 1 -112.85 0 56.429 56.429 0 1 1 112.85 0z"
         transform="matrix(0 -.44304 .44304 0 18.022 239.28)"
         id="path3353" />
      <path
         d="m237.14 355.93a56.429 56.429 0 1 1 -112.85 0 56.429 56.429 0 1 1 112.85 0z"
         transform="matrix(.44304 0 0 .44304 295.65 201.53)"
         id="path3355" />
      <path
         d="m237.14 355.93a56.429 56.429 0 1 1 -112.85 0 56.429 56.429 0 1 1 112.85 0z"
         transform="matrix(0 .44304 -.44304 0 333.41 479.16)"
         id="path3357" />
      <path
         d="m237.14 355.93a56.429 56.429 0 1 1 -112.85 0 56.429 56.429 0 1 1 112.85 0z"
         transform="matrix(-.44304 0 0 -.44304 55.778 516.91)"
         id="path3359" />
      <path
         d="m237.14 355.93a56.429 56.429 0 1 1 -112.85 0 56.429 56.429 0 1 1 112.85 0z"
         transform="matrix(.14398 -.41899 .41899 .14398 65.56 194.54)"
         id="path3361" />
      <path
         d="m237.14 355.93a56.429 56.429 0 1 1 -112.85 0 56.429 56.429 0 1 1 112.85 0z"
         transform="matrix(.41899 .14398 -.14398 .41899 340.39 249.07)"
         id="path3363" />
      <path
         d="m237.14 355.93a56.429 56.429 0 1 1 -112.85 0 56.429 56.429 0 1 1 112.85 0z"
         transform="matrix(-.14398 .41899 -.41899 -.14398 285.87 523.89)"
         id="path3365" />
      <path
         d="m237.14 355.93a56.429 56.429 0 1 1 -112.85 0 56.429 56.429 0 1 1 112.85 0z"
         transform="matrix(-.41899 -.14398 .14398 -.41899 11.04 469.37)"
         id="path3367" />
      <path
         d="m237.14 355.93a56.429 56.429 0 1 1 -112.85 0 56.429 56.429 0 1 1 112.85 0z"
         transform="matrix(.28637 -.33804 .33804 .28637 132.92 165.78)"
         id="path3369" />
      <path
         d="m237.14 355.93a56.429 56.429 0 1 1 -112.85 0 56.429 56.429 0 1 1 112.85 0z"
         transform="matrix(.33804 .28637 -.28637 .33804 369.16 316.42)"
         id="path3371" />
      <path
         d="m237.14 355.93a56.429 56.429 0 1 1 -112.85 0 56.429 56.429 0 1 1 112.85 0z"
         transform="matrix(-.28637 .33804 -.33804 -.28637 218.51 552.66)"
         id="path3373" />
      <path
         d="m237.14 355.93a56.429 56.429 0 1 1 -112.85 0 56.429 56.429 0 1 1 112.85 0z"
         transform="matrix(-.33804 -.28637 .28637 -.33804 -17.729 402.01)"
         id="path3375" />
      <path
         d="m237.14 355.93a56.429 56.429 0 1 1 -112.85 0 56.429 56.429 0 1 1 112.85 0z"
         transform="matrix(.37294 -.23916 .23916 .37294 191.55 161.73)"
         id="path3377" />
      <path
         d="m237.14 355.93a56.429 56.429 0 1 1 -112.85 0 56.429 56.429 0 1 1 112.85 0z"
         transform="matrix(.23916 .37294 -.37294 .23916 373.2 375.05)"
         id="path3379" />
      <path
         d="m237.14 355.93a56.429 56.429 0 1 1 -112.85 0 56.429 56.429 0 1 1 112.85 0z"
         transform="matrix(-.37294 .23916 -.23916 -.37294 159.88 556.71)"
         id="path3381" />
      <path
         d="m237.14 355.93a56.429 56.429 0 1 1 -112.85 0 56.429 56.429 0 1 1 112.85 0z"
         transform="matrix(-.23916 -.37294 .37294 -.23916 -21.772 343.38)"
         id="path3383" />
      <path
         d="m237.14 355.93a56.429 56.429 0 1 1 -112.85 0 56.429 56.429 0 1 1 112.85 0z"
         transform="matrix(.42566 -.12287 .12287 .42566 247.21 174.45)"
         id="path3385" />
      <path
         d="m237.14 355.93a56.429 56.429 0 1 1 -112.85 0 56.429 56.429 0 1 1 112.85 0z"
         transform="matrix(.12287 .42566 -.42566 .12287 360.48 430.72)"
         id="path3387" />
      <path
         d="m237.14 355.93a56.429 56.429 0 1 1 -112.85 0 56.429 56.429 0 1 1 112.85 0z"
         transform="matrix(-.42566 .12287 -.12287 -.42566 104.22 543.99)"
         id="path3389" />
      <path
         d="m237.14 355.93a56.429 56.429 0 1 1 -112.85 0 56.429 56.429 0 1 1 112.85 0z"
         transform="matrix(-.12287 -.42566 .42566 -.12287 -9.0545 287.72)"
         id="path3391" />
      <path
         d="m237.14 355.93a56.429 56.429 0 1 1 -112.85 0 56.429 56.429 0 1 1 112.85 0z"
         transform="matrix(0 -.44304 .44304 0 18.022 177.28)"
         id="path3393" />
      <path
         d="m237.14 355.93a56.429 56.429 0 1 1 -112.85 0 56.429 56.429 0 1 1 112.85 0z"
         transform="matrix(.44304 0 0 .44304 358.51 202.38)"
         id="path3395" />
      <path
         d="m237.14 355.93a56.429 56.429 0 1 1 -112.85 0 56.429 56.429 0 1 1 112.85 0z"
         transform="matrix(0 .44304 -.44304 0 333.41 542.87)"
         id="path3397" />
      <path
         d="m237.14 355.93a56.429 56.429 0 1 1 -112.85 0 56.429 56.429 0 1 1 112.85 0z"
         transform="matrix(-.44304 0 0 -.44304 -7.0795 517.77)"
         id="path3399" />
      <path
         d="m237.14 355.93a56.429 56.429 0 1 1 -112.85 0 56.429 56.429 0 1 1 112.85 0z"
         transform="matrix(.10973 -.42923 .42923 .10973 68.209 143.92)"
         id="path3401" />
      <path
         d="m237.14 355.93a56.429 56.429 0 1 1 -112.85 0 56.429 56.429 0 1 1 112.85 0z"
         transform="matrix(.42923 .10973 -.10973 .42923 391.87 252.57)"
         id="path3403" />
      <path
         d="m237.14 355.93a56.429 56.429 0 1 1 -112.85 0 56.429 56.429 0 1 1 112.85 0z"
         transform="matrix(-.10973 .42923 -.42923 -.10973 283.22 576.23)"
         id="path3405" />
      <path
         d="m237.14 355.93a56.429 56.429 0 1 1 -112.85 0 56.429 56.429 0 1 1 112.85 0z"
         transform="matrix(-.42923 -.10973 .10973 -.42923 -40.441 467.58)"
         id="path3407" />
      <path
         d="m237.14 355.93a56.429 56.429 0 1 1 -112.85 0 56.429 56.429 0 1 1 112.85 0z"
         transform="matrix(.42867 -.11192 .11192 .42867 312.74 161.32)"
         id="path3409" />
      <path
         d="m237.14 355.93a56.429 56.429 0 1 1 -112.85 0 56.429 56.429 0 1 1 112.85 0z"
         transform="matrix(.11192 .42867 -.42867 .11192 374.47 497.1)"
         id="path3411" />
      <path
         d="m237.14 355.93a56.429 56.429 0 1 1 -112.85 0 56.429 56.429 0 1 1 112.85 0z"
         transform="matrix(-.42867 .11192 -.11192 -.42867 38.686 558.83)"
         id="path3413" />
      <path
         d="m237.14 355.93a56.429 56.429 0 1 1 -112.85 0 56.429 56.429 0 1 1 112.85 0z"
         transform="matrix(-.11192 -.42867 .42867 -.11192 -23.041 223.05)"
         id="path3415" />
      <path
         d="m237.14 355.93a56.429 56.429 0 1 1 -112.85 0 56.429 56.429 0 1 1 112.85 0z"
         transform="matrix(.38945 -.21122 .21122 .38945 261.22 134.31)"
         id="path3417" />
      <path
         d="m237.14 355.93a56.429 56.429 0 1 1 -112.85 0 56.429 56.429 0 1 1 112.85 0z"
         transform="matrix(.21122 .38945 -.38945 .21122 401.48 445.58)"
         id="path3419" />
      <path
         d="m237.14 355.93a56.429 56.429 0 1 1 -112.85 0 56.429 56.429 0 1 1 112.85 0z"
         transform="matrix(-.38945 .21122 -.21122 -.38945 90.21 585.84)"
         id="path3421" />
      <path
         d="m237.14 355.93a56.429 56.429 0 1 1 -112.85 0 56.429 56.429 0 1 1 112.85 0z"
         transform="matrix(-.21122 -.38945 .38945 -.21122 -50.05 274.57)"
         id="path3423" />
      <path
         d="m237.14 355.93a56.429 56.429 0 1 1 -112.85 0 56.429 56.429 0 1 1 112.85 0z"
         transform="matrix(.39233 .20582 -.20582 .39233 410.84 305.35)"
         id="path3425" />
      <path
         d="m237.14 355.93a56.429 56.429 0 1 1 -112.85 0 56.429 56.429 0 1 1 112.85 0z"
         transform="matrix(-.20582 .39233 -.39233 -.20582 230.44 595.21)"
         id="path3427" />
      <path
         d="m237.14 355.93a56.429 56.429 0 1 1 -112.85 0 56.429 56.429 0 1 1 112.85 0z"
         transform="matrix(-.39233 -.20582 .20582 -.39233 -59.415 414.8)"
         id="path3429" />
      <path
         d="m237.14 355.93a56.429 56.429 0 1 1 -112.85 0 56.429 56.429 0 1 1 112.85 0z"
         transform="matrix(.20582 -.39233 .39233 .20582 120.99 124.95)"
         id="path3431" />
      <path
         d="m237.14 355.93a56.429 56.429 0 1 1 -112.85 0 56.429 56.429 0 1 1 112.85 0z"
         transform="matrix(.31163 .31492 -.31492 .31163 416.38 379.09)"
         id="path3433" />
      <path
         d="m237.14 355.93a56.429 56.429 0 1 1 -112.85 0 56.429 56.429 0 1 1 112.85 0z"
         transform="matrix(-.31492 .31163 -.31163 -.31492 156.7 600.74)"
         id="path3435" />
      <path
         d="m237.14 355.93a56.429 56.429 0 1 1 -112.85 0 56.429 56.429 0 1 1 112.85 0z"
         transform="matrix(-.31163 -.31492 .31492 -.31163 -64.949 341.06)"
         id="path3437" />
      <path
         d="m237.14 355.93a56.429 56.429 0 1 1 -112.85 0 56.429 56.429 0 1 1 112.85 0z"
         transform="matrix(.31492 -.31163 .31163 .31492 194.73 119.41)"
         id="path3439" />
    </g>
  </g>
  <metadata
     id="metadata74">
    <rdf:RDF>
      <cc:Work>
        <dc:format>image/svg+xml</dc:format>
        <dc:type
           rdf:resource="http://purl.org/dc/dcmitype/StillImage" />
        <cc:license
           rdf:resource="http://creativecommons.org/licenses/publicdomain/" />
        <dc:publisher>
          <cc:Agent
             rdf:about="http://openclipart.org/">
            <dc:title>Openclipart</dc:title>
          </cc:Agent>
        </dc:publisher>
        <dc:title>Non-Directional Beacon (NDB)</dc:title>
        <dc:date>2009-07-14T08:00:08</dc:date>
        <dc:description>The symbol used for a Non-Directional Beacon (NDB) on air navigation charts.</dc:description>
        <dc:source>http://openclipart.org/detail/27180/non-directional-beacon-(ndb)-by-wirelizard</dc:source>
        <dc:creator>
          <cc:Agent>
            <dc:title>wirelizard</dc:title>
          </cc:Agent>
        </dc:creator>
        <dc:subject>
          <rdf:Bag>
            <rdf:li>aeroplane</rdf:li>
            <rdf:li>aircraft</rdf:li>
            <rdf:li>airplane</rdf:li>
            <rdf:li>beacon</rdf:li>
            <rdf:li>chart</rdf:li>
            <rdf:li>clip art</rdf:li>
            <rdf:li>clipart</rdf:li>
            <rdf:li>directional beacon</rdf:li>
            <rdf:li>flight</rdf:li>
            <rdf:li>fly</rdf:li>
            <rdf:li>flying</rdf:li>
            <rdf:li>image</rdf:li>
            <rdf:li>map</rdf:li>
            <rdf:li>media</rdf:li>
            <rdf:li>navigation</rdf:li>
            <rdf:li>ndb</rdf:li>
            <rdf:li>non</rdf:li>
            <rdf:li>nondirectional beacon</rdf:li>
            <rdf:li>png</rdf:li>
            <rdf:li>public domain</rdf:li>
            <rdf:li>radio</rdf:li>
            <rdf:li>svg</rdf:li>
            <rdf:li>symbol</rdf:li>
          </rdf:Bag>
        </dc:subject>
      </cc:Work>
      <cc:License
         rdf:about="http://creativecommons.org/licenses/publicdomain/">
        <cc:permits
           rdf:resource="http://creativecommons.org/ns#Reproduction" />
        <cc:permits
           rdf:resource="http://creativecommons.org/ns#Distribution" />
        <cc:permits
           rdf:resource="http://creativecommons.org/ns#DerivativeWorks" />
      </cc:License>
    </rdf:RDF>
  </metadata>
</svg>
