<?xml version="1.0" standalone="no"?>
<!DOCTYPE svg PUBLIC "-//W3C//DTD SVG 20010904//EN"
 "http://www.w3.org/TR/2001/REC-SVG-20010904/DTD/svg10.dtd">
<svg version="1.0" xmlns="http://www.w3.org/2000/svg"
 width="110.000000pt" height="101.000000pt" viewBox="0 0 110.000000 101.000000"
 preserveAspectRatio="xMidYMid meet">
<metadata>
Created by potrace 1.16, written by Peter Selinger 2001-2019
</metadata>
<g transform="translate(0.000000,101.000000) scale(0.100000,-0.100000)"
fill="#000000" stroke="none">
<path d="M506 791 c-5 -7 -48 -11 -116 -11 -59 0 -115 -3 -124 -6 -11 -4 -16
-19 -16 -45 0 -29 -4 -39 -16 -39 -9 0 -14 -6 -11 -12 2 -7 10 -12 16 -11 8 2
11 -38 11 -137 0 -87 -4 -140 -10 -140 -5 0 -10 -7 -10 -15 0 -8 5 -15 10 -15
6 0 10 -13 10 -29 0 -17 5 -33 12 -37 6 -4 59 -6 116 -5 77 2 108 -1 114 -11
8 -10 11 -10 15 0 6 15 79 16 88 2 5 -8 11 -8 20 0 8 6 49 10 98 9 47 -1 90 2
96 5 6 4 11 22 11 41 0 21 6 35 16 39 8 3 12 10 9 16 -4 6 -11 8 -16 5 -15
-10 -12 268 4 284 10 11 10 14 0 18 -7 3 -13 17 -13 32 0 47 -14 51 -155 51
-81 0 -135 4 -142 11 -8 8 -13 8 -17 0z m274 -100 c0 -30 -5 -52 -12 -55 -10
-5 -10 -7 -1 -12 8 -4 12 -48 12 -150 l1 -144 -34 0 c-19 0 -37 6 -40 13 -5
10 -7 10 -12 0 -4 -10 -55 -13 -204 -13 l-199 0 0 205 0 205 245 0 244 0 0
-49z"/>
<path d="M494 630 c-35 -14 -64 -59 -64 -100 0 -71 68 -122 133 -101 46 16 68
41 74 89 6 48 -8 77 -50 102 -34 21 -59 24 -93 10z m97 -39 c20 -20 29 -39 29
-61 0 -37 -47 -90 -80 -90 -29 0 -76 26 -84 45 -37 98 64 177 135 106z"/>
</g>
</svg>
