<?xml version="1.0" standalone="no"?>
<!DOCTYPE svg PUBLIC "-//W3C//DTD SVG 20010904//EN"
 "http://www.w3.org/TR/2001/REC-SVG-20010904/DTD/svg10.dtd">
<svg version="1.0" xmlns="http://www.w3.org/2000/svg"
 width="111.000000pt" height="100.000000pt" viewBox="0 0 111.000000 100.000000"
 preserveAspectRatio="xMidYMid meet">
<metadata>
Created by potrace 1.16, written by Peter Selinger 2001-2019
</metadata>
<g transform="translate(0.000000,100.000000) scale(0.100000,-0.100000)"
fill="#000000" stroke="none">
<path d="M514 595 c4 -12 -5 -15 -54 -15 l-60 0 -1 -72 c-1 -107 2 -152 11
-161 8 -9 249 -11 257 -3 2 2 4 56 4 119 0 94 3 116 15 121 8 3 12 10 9 16 -9
15 -25 12 -25 -4 0 -11 -16 -14 -69 -14 -54 1 -68 4 -64 14 3 9 -2 14 -12 14
-11 0 -15 -5 -11 -15z m136 -44 c0 -6 -5 -13 -11 -17 -8 -4 -8 -9 0 -17 6 -6
11 -32 11 -58 0 -35 -4 -49 -17 -54 -17 -6 -17 -7 0 -19 9 -7 17 -16 17 -19 0
-3 -43 -6 -95 -6 -78 -1 -95 2 -95 14 0 8 -7 15 -16 15 -10 0 -14 -6 -10 -15
3 -8 1 -15 -5 -15 -6 0 -9 39 -8 100 l2 100 113 0 c65 0 114 -4 114 -9z"/>
<path d="M475 525 c-50 -49 -22 -126 53 -141 26 -5 36 -1 62 24 57 58 25 142
-55 142 -25 0 -44 -8 -60 -25z"/>
</g>
</svg>
