<?xml version="1.0" standalone="no"?>
<!DOCTYPE svg PUBLIC "-//W3C//DTD SVG 20010904//EN"
 "http://www.w3.org/TR/2001/REC-SVG-20010904/DTD/svg10.dtd">
<svg version="1.0" xmlns="http://www.w3.org/2000/svg"
 width="111.000000pt" height="100.000000pt" viewBox="0 0 111.000000 100.000000"
 preserveAspectRatio="xMidYMid meet">
<metadata>
Created by potrace 1.16, written by Peter Selinger 2001-2019
</metadata>
<g transform="translate(0.000000,100.000000) scale(0.100000,-0.100000)"
fill="#000000" stroke="none">
<path d="M519 603 c-1 -4 -1 -11 0 -15 0 -5 -26 -8 -59 -8 l-61 0 3 -117 3
-118 50 -5 c28 -3 87 -4 133 -2 l82 4 0 118 c0 86 3 120 13 123 6 2 8 8 4 13
-4 5 -11 3 -15 -3 -4 -6 -36 -11 -75 -11 -37 0 -65 3 -62 8 3 5 1 11 -5 15 -5
3 -11 3 -11 -2z m129 -118 c2 -47 -1 -75 -8 -75 -5 0 -10 -7 -10 -16 0 -8 5
-12 10 -9 6 3 10 -1 10 -9 0 -13 -16 -16 -100 -16 -55 0 -99 4 -98 9 2 5 -1 9
-7 9 -5 0 -9 -4 -7 -9 1 -5 -2 -9 -8 -9 -6 0 -10 40 -10 100 l0 100 113 0 113
0 2 -75z"/>
<path d="M475 525 c-32 -31 -32 -76 -2 -109 34 -38 85 -39 122 -1 32 31 32 66
-1 104 -33 40 -83 43 -119 6z"/>
</g>
</svg>
