<?xml version="1.0" standalone="no"?>
<!DOCTYPE svg PUBLIC "-//W3C//DTD SVG 20010904//EN"
 "http://www.w3.org/TR/2001/REC-SVG-20010904/DTD/svg10.dtd">
<svg version="1.0" xmlns="http://www.w3.org/2000/svg"
 width="87.000000pt" height="84.000000pt" viewBox="0 0 87.000000 84.000000"
 preserveAspectRatio="xMidYMid meet">
<metadata>
Created by potrace 1.16, written by Peter Selinger 2001-2019
</metadata>
<g transform="translate(0.000000,84.000000) scale(0.100000,-0.100000)"
fill="#000000" stroke="none">
<path d="M222 738 c-35 -58 -170 -303 -174 -313 -5 -16 183 -336 193 -329 5 3
9 0 9 -5 0 -8 65 -11 198 -11 l197 0 93 165 c52 91 92 171 90 179 -2 7 -43 88
-93 180 l-90 166 -202 0 -201 0 -20 -32z m484 -166 l85 -154 -83 -146 -83
-147 -183 0 -183 0 -85 147 -85 147 87 156 88 155 179 -2 179 -3 84 -153z"/>
<path d="M385 528 c-34 -27 -55 -74 -48 -110 8 -40 66 -88 107 -88 41 0 84 32
102 77 12 28 12 38 0 67 -29 69 -108 96 -161 54z"/>
</g>
</svg>
