<?xml version="1.0" standalone="no"?>
<!DOCTYPE svg PUBLIC "-//W3C//DTD SVG 20010904//EN"
 "http://www.w3.org/TR/2001/REC-SVG-20010904/DTD/svg10.dtd">
<svg version="1.0" xmlns="http://www.w3.org/2000/svg"
 width="128.000000pt" height="114.000000pt" viewBox="0 0 128.000000 114.000000"
 preserveAspectRatio="xMidYMid meet">
<metadata>
Created by potrace 1.16, written by Peter Selinger 2001-2019
</metadata>
<g transform="translate(0.000000,114.000000) scale(0.100000,-0.100000)"
fill="#000000" stroke="none">
<path d="M191 890 c-52 -87 -94 -161 -93 -165 0 -4 24 -23 53 -43 48 -34 62
-55 175 -257 l124 -220 0 -72 0 -73 195 0 195 0 0 73 0 73 123 209 c68 116
129 219 137 231 7 11 34 33 61 48 l49 27 -33 52 c-19 29 -62 97 -97 152 -35
55 -67 104 -70 108 -4 5 -34 -8 -66 -29 l-58 -37 -245 7 c-263 8 -242 4 -336
62 -19 12 -26 2 -114 -146z m645 24 c24 -5 43 -27 112 -140 l83 -134 -108
-185 -108 -185 -170 0 -170 0 -104 187 -104 187 27 49 c15 27 52 89 82 138
l55 89 188 0 c104 0 201 -3 217 -6z"/>
<path d="M614 759 c-38 -11 -103 -80 -106 -112 -3 -47 5 -83 23 -109 30 -41
81 -68 129 -68 38 0 48 6 91 49 43 43 49 53 49 91 0 98 -95 174 -186 149z"/>
</g>
</svg>
